<svg width="1440" height="246" viewBox="0 0 1440 246" fill="none" xmlns="http://www.w3.org/2000/svg">
<rect x="-84" y="3" width="248" height="120" fill="url(#paint0_linear_19_4074)" fill-opacity="0.6"/>
<g clip-path="url(#clip0_19_4074)">
<path d="M7.97376 48.6685H-4.51881C-5.1572 48.6685 -5.47692 49.4403 -5.0255 49.8917L6.75049 61.6677C7.20191 62.1191 7.97376 61.7994 7.97376 61.161V48.6685Z" fill="white"/>
<path d="M1.14036 55.9976H-16.7335C-18.0103 55.9976 -18.6497 57.5413 -17.7469 58.4441L-1.30618 74.8848C-0.403345 75.7876 1.14036 75.1482 1.14036 73.8714V55.9976Z" fill="white"/>
<path fill-rule="evenodd" clip-rule="evenodd" d="M1.14039 65.3981V55.9976H-8.26016C-8.67749 58.4223 -8.0235 61.0562 -5.97085 63.1088C-3.91822 65.1615 -1.28439 65.8155 1.14039 65.3981Z" fill="white"/>
</g>
<path d="M13.7065 66.1141C13.7065 68.9538 15.99 70.886 19.5909 70.886C23.1626 70.886 25.651 69.0709 25.651 66.1433C25.651 63.9184 24.4214 62.8059 21.9915 62.2497L19.386 61.6349C18.1564 61.3421 17.5123 60.8151 17.5123 59.9954C17.5123 58.9122 18.3321 58.2681 19.7373 58.2681C21.1133 58.2681 21.933 59.0586 21.9623 60.2882H25.3583C25.329 57.4777 23.1333 55.604 19.8837 55.604C16.5462 55.604 14.1456 57.302 14.1456 60.1418C14.1456 62.4546 15.4045 63.6842 18.01 64.2697L20.6156 64.8845C21.9037 65.1772 22.2843 65.7042 22.2843 66.4361C22.2843 67.49 21.3768 68.1634 19.708 68.1634C18.0686 68.1634 17.1317 67.3729 17.1025 66.1141H13.7065Z" fill="white"/>
<path d="M31.4591 70.5055V59.0293H34.2696V56.0432H31.4591V51.5347H27.8874V56.0432H25.1062V59.0293H27.8874V70.5055H31.4591Z" fill="white"/>
<path d="M38.878 70.886C41.1323 70.886 43.0938 69.8614 43.7086 68.3683L43.972 70.5055H47.1046V61.7227C47.1046 57.7119 44.7039 55.604 40.8102 55.604C36.8873 55.604 34.311 57.6533 34.311 60.7859H37.3557C37.3557 59.2635 38.5267 58.3852 40.6346 58.3852C42.4497 58.3852 43.6207 59.1757 43.6207 61.1372V61.4592L39.2879 61.7812C35.8626 62.0447 33.9304 63.7134 33.9304 66.3776C33.9304 69.1002 35.8041 70.886 38.878 70.886ZM40.0491 68.1927C38.4389 68.1927 37.5606 67.5486 37.5606 66.2312C37.5606 65.0601 38.4096 64.3282 40.6346 64.1233L43.65 63.8891V64.6503C43.65 66.8752 42.2448 68.1927 40.0491 68.1927Z" fill="white"/>
<path d="M57.8591 55.9846C57.2736 55.8382 56.7759 55.7797 56.2782 55.7797C54.346 55.7797 52.97 56.7458 52.3552 58.1803L52.1503 56.0724H48.7836V70.5055H52.3552V63.4792C52.3552 60.6688 53.9654 59.2928 56.5417 59.2928H57.8591V55.9846Z" fill="white"/>
<path d="M57.3344 66.1141C57.3344 68.9538 59.618 70.886 63.2189 70.886C66.7906 70.886 69.279 69.0709 69.279 66.1433C69.279 63.9184 68.0494 62.8059 65.6195 62.2497L63.014 61.6349C61.7844 61.3421 61.1403 60.8151 61.1403 59.9954C61.1403 58.9122 61.96 58.2681 63.3653 58.2681C64.7412 58.2681 65.561 59.0586 65.5902 60.2882H68.9862C68.957 57.4777 66.7613 55.604 63.5117 55.604C60.1742 55.604 57.7736 57.302 57.7736 60.1418C57.7736 62.4546 59.0324 63.6842 61.638 64.2697L64.2435 64.8845C65.5317 65.1772 65.9123 65.7042 65.9123 66.4361C65.9123 67.49 65.0047 68.1634 63.336 68.1634C61.6965 68.1634 60.7597 67.3729 60.7304 66.1141H57.3344Z" fill="white"/>
<path d="M79.9761 56.0432V63.6256C79.9761 66.3776 78.8929 67.695 76.6387 67.695C74.6479 67.695 73.5647 66.5825 73.5647 63.8305V56.0432H69.9931V65.0894C69.9931 68.6318 71.9545 70.886 75.292 70.886C77.2242 70.886 79.0979 69.9492 79.9761 68.5732L80.2396 70.5055H83.5478V56.0432H79.9761Z" fill="white"/>
<path d="M85.407 74.465H88.9787V68.5732C89.8863 70.037 91.7599 70.886 93.9263 70.886C98.2299 70.886 100.689 67.6071 100.689 63.0987C100.689 58.5609 97.9957 55.604 93.9263 55.604C91.7306 55.604 89.8277 56.5701 88.9494 58.2389L88.7152 56.0432H85.407V74.465ZM89.008 63.2743C89.008 60.6688 90.6182 58.8536 93.0773 58.8536C95.5951 58.8536 97.0881 60.698 97.0881 63.2743C97.0881 65.8506 95.5951 67.6657 93.0773 67.6657C90.6182 67.6657 89.008 65.8799 89.008 63.2743Z" fill="white"/>
<rect x="-85.3266" y="1.67341" width="250.653" height="122.653" stroke="url(#paint1_linear_19_4074)" stroke-opacity="0.8" stroke-width="2.65318"/>
<rect x="188" y="3" width="248" height="120" fill="url(#paint2_linear_19_4074)" fill-opacity="0.6"/>
<g clip-path="url(#clip1_19_4074)">
<path d="M272.537 70.4556C273.657 71.575 273.657 73.3898 272.537 74.5092L271.72 75.3266C270.6 76.446 268.786 76.446 267.666 75.3266L264.794 72.4542L269.665 67.5833L272.537 70.4556Z" fill="white"/>
<path d="M252.219 70.4582C251.109 71.5791 251.113 73.3866 252.229 74.5022L253.046 75.3195C254.169 76.4426 255.992 76.4383 257.109 75.3099L262.387 69.9824L257.516 65.1115L252.219 70.4582Z" fill="white"/>
<path fill-rule="evenodd" clip-rule="evenodd" d="M277.027 49.7682C275.909 48.6495 274.095 48.6488 272.976 49.7665L262.43 60.2947L256.757 54.6223C255.861 53.7256 254.407 53.7256 253.51 54.6223L251.886 56.2459C250.99 57.1427 250.99 58.5965 251.886 59.4932L262.426 70.0326L264.383 68.075C264.411 68.0489 264.439 68.0222 264.467 67.9948L277.843 54.6409C278.964 53.5218 278.965 51.7057 277.845 50.5856L277.027 49.7682Z" fill="white"/>
</g>
<path d="M296.862 70.1104H287.354V63.8817H295.842V61.2359H287.354V55.6136H296.669V52.9678H284.322V72.7562H296.862V70.1104Z" fill="white"/>
<path d="M299.99 72.7562L303.848 66.941L307.762 72.7562H310.959L305.832 65.37L310.628 58.1492H307.624L304.013 63.6613L300.403 58.1492H297.178L302.029 65.2873L296.848 72.7562H299.99Z" fill="white"/>
<path d="M319.19 72.7562C325.309 72.7562 329.388 68.5119 329.388 62.7518C329.388 56.9916 325.447 52.9678 319.19 52.9678H311.474V72.7562H319.19ZM316.682 57.4601H318.887C322.277 57.4601 324.041 59.2516 324.041 62.7518C324.041 66.4724 322.332 68.2639 318.887 68.2639H316.682V57.4601Z" fill="white"/>
<path d="M336.789 73.0318C341.171 73.0318 344.534 69.5868 344.534 65.3424C344.534 61.0981 341.171 57.6531 336.789 57.6531C332.407 57.6531 329.045 61.0981 329.045 65.3424C329.045 69.5868 332.407 73.0318 336.789 73.0318ZM336.789 68.8151C335.328 68.8151 333.95 67.6575 333.95 65.3424C333.95 63.0274 335.328 61.8974 336.789 61.8974C338.25 61.8974 339.628 63.0274 339.628 65.3424C339.628 67.6575 338.25 68.8151 336.789 68.8151Z" fill="white"/>
<path d="M349.686 64.9566C349.686 62.7242 350.733 61.8974 351.891 61.8974C353.324 61.8974 353.985 62.9171 353.985 64.7912V72.7562H358.698V63.2203C358.698 59.6099 356.631 57.6531 353.71 57.6531C351.836 57.6531 350.458 58.4248 349.3 59.7201V57.9287H344.973V72.7562H349.686V64.9566Z" fill="white"/>
<path d="M366.635 73.0043C370.328 73.0043 372.946 71.1026 373.856 67.7127H369.143C368.729 68.7875 367.847 69.3387 366.525 69.3387C365.009 69.3387 364.127 68.4017 363.879 66.5276H373.938C374.793 61.6493 371.513 57.6531 366.607 57.6531C362.198 57.6531 359.001 60.8776 359.001 65.3149C359.001 69.9175 362.06 73.0043 366.635 73.0043ZM366.497 61.1257C367.903 61.1257 368.84 62.0903 368.895 63.5786H363.934C364.265 61.9249 365.091 61.1257 366.497 61.1257Z" fill="white"/>
<rect x="186.673" y="1.67341" width="250.653" height="122.653" stroke="url(#paint3_linear_19_4074)" stroke-opacity="0.8" stroke-width="2.65318"/>
<rect x="460" y="3" width="248" height="120" fill="url(#paint4_linear_19_4074)" fill-opacity="0.6"/>
<path fill-rule="evenodd" clip-rule="evenodd" d="M514.714 51.5347V60.633H517.747V51.5347H514.714ZM522.865 51.5347V65.1821H525.898V51.5347H522.865ZM531.205 60.633V51.5347H534.238V60.633H531.205ZM524.381 74.465C518.588 74.465 513.714 70.5272 512.291 65.1821H515.468C516.788 68.8275 520.28 71.4323 524.381 71.4323C528.482 71.4323 531.975 68.8275 533.295 65.1821H536.471C535.048 70.5272 530.175 74.465 524.381 74.465Z" fill="white"/>
<path d="M548.074 69.0619V59.5H544.445V56.9375H554.902V59.5H551.273V69.0619H548.074Z" fill="white"/>
<path d="M559.072 69.0619V56.9375H567.688V59.3796H562.15V61.6841H567.344V64.109H562.15V66.6198H567.688V69.0619H559.072Z" fill="white"/>
<path d="M581.284 69.0619L580.201 66.5511H574.835L573.751 69.0619H570.57L576.228 56.9375H578.739L584.414 69.0619H581.284ZM575.849 64.1778H579.186L577.518 60.2911L575.849 64.1778Z" fill="white"/>
<path d="M597.801 56.9375H600.243V69.0619H597.491V62.6988L595.152 67.0498H593.123L590.801 62.8019L590.784 69.0619H588.033V56.9375H590.526L594.172 63.8338L597.801 56.9375Z" fill="white"/>
<path d="M608.076 69.0619V59.5H604.447V56.9375H614.903V59.5H611.275V69.0619H608.076Z" fill="white"/>
<path d="M626.73 69.0619L625.647 66.5511H620.281L619.198 69.0619H616.016L621.674 56.9375H624.185L629.86 69.0619H626.73ZM621.296 64.1778H624.632L622.964 60.2911L621.296 64.1778Z" fill="white"/>
<path d="M633.445 69.0619V56.9375H636.609V66.4995H641.768V69.0619H633.445Z" fill="white"/>
<path d="M657.95 69.0619H654.201L649.317 63.5758V69.0619H646.153V56.9375H649.317V62.1484L654.064 56.9375H657.761L652.413 62.6988L657.95 69.0619Z" fill="white"/>
<rect x="458.673" y="1.67341" width="250.653" height="122.653" stroke="url(#paint5_linear_19_4074)" stroke-opacity="0.8" stroke-width="2.65318"/>
<rect x="732" y="3" width="248" height="120" fill="url(#paint6_linear_19_4074)" fill-opacity="0.6"/>
<path fill-rule="evenodd" clip-rule="evenodd" d="M803.699 60.7423C803.699 63.5504 805.382 65.9655 807.794 67.0345C809.241 67.6759 810.579 68.9047 810.579 70.4877L810.579 72.2075C804.247 72.2075 799.113 67.0744 799.113 60.7423C799.113 54.4103 804.247 49.2772 810.579 49.2772L810.579 53.8632C806.779 53.8632 803.699 56.9431 803.699 60.7423Z" fill="white"/>
<path fill-rule="evenodd" clip-rule="evenodd" d="M817.458 65.2572C817.458 62.4491 815.775 60.034 813.363 58.965C811.916 58.3236 810.579 57.0948 810.579 55.5118L810.579 53.792C816.911 53.792 822.044 58.9251 822.044 65.2572C822.044 71.5892 816.911 76.7223 810.579 76.7223L810.579 72.1363C814.378 72.1363 817.458 69.0564 817.458 65.2572Z" fill="white"/>
<path d="M830.843 57.5927C830.843 59.8398 832.147 61.2644 834.635 61.8061L836.963 62.3278C838.167 62.5886 838.668 63.1705 838.668 64.1536C838.668 65.3775 837.585 66.1199 835.879 66.1199C834.234 66.1199 833.231 65.3775 833.211 64.1336H830.643C830.703 66.7619 832.749 68.4273 835.879 68.4273C839.11 68.4273 841.236 66.6616 841.236 63.9329C841.236 61.7459 840.012 60.4618 837.504 59.9201L835.197 59.4185C833.973 59.1376 833.411 58.5557 833.411 57.5124C833.411 56.2885 834.435 55.5261 836.02 55.5261C837.464 55.5261 838.367 56.2684 838.427 57.5325H840.996C840.915 54.884 839.029 53.2388 836.06 53.2388C832.97 53.2388 830.843 55.0245 830.843 57.5927Z" fill="white"/>
<path d="M844.233 68.1664V53.2388H841.806V68.1664H844.233Z" fill="white"/>
<path d="M848.317 68.4273C849.862 68.4273 851.207 67.725 851.628 66.7018L851.808 68.1664H853.955V62.1472C853.955 59.3984 852.31 57.9538 849.642 57.9538C846.953 57.9538 845.187 59.3583 845.187 61.5052H847.274C847.274 60.4618 848.077 59.8599 849.521 59.8599C850.765 59.8599 851.568 60.4016 851.568 61.7459V61.9666L848.598 62.1873C846.251 62.3679 844.927 63.5116 844.927 65.3374C844.927 67.2034 846.211 68.4273 848.317 68.4273ZM849.12 66.5814C848.016 66.5814 847.414 66.14 847.414 65.2371C847.414 64.4345 847.996 63.9329 849.521 63.7925L851.588 63.632V64.1536C851.588 65.6785 850.625 66.5814 849.12 66.5814Z" fill="white"/>
<path d="M857.194 68.1664L857.355 66.6215C857.937 67.7652 859.201 68.4273 860.685 68.4273C863.534 68.4273 865.4 66.3205 865.4 63.2708C865.4 60.1408 863.675 57.9338 860.846 57.9338C859.341 57.9338 858.017 58.5959 857.375 59.6994V53.2388H854.927V68.1664H857.194ZM857.395 63.1705C857.395 61.3848 858.498 60.1408 860.184 60.1408C861.909 60.1408 862.932 61.4048 862.932 63.1705C862.932 64.9361 861.909 66.1801 860.184 66.1801C858.498 66.1801 857.395 64.9562 857.395 63.1705Z" fill="white"/>
<path d="M865.435 57.5927C865.435 59.8398 866.739 61.2644 869.227 61.8061L871.554 62.3278C872.758 62.5886 873.26 63.1705 873.26 64.1536C873.26 65.3775 872.176 66.1199 870.471 66.1199C868.826 66.1199 867.822 65.3775 867.802 64.1336H865.234C865.294 66.7619 867.341 68.4273 870.471 68.4273C873.701 68.4273 875.828 66.6616 875.828 63.9329C875.828 61.7459 874.604 60.4618 872.096 59.9201L869.789 59.4185C868.565 59.1376 868.003 58.5557 868.003 57.5124C868.003 56.2885 869.026 55.5261 870.611 55.5261C872.056 55.5261 872.959 56.2684 873.019 57.5325H875.587C875.507 54.884 873.621 53.2388 870.651 53.2388C867.561 53.2388 865.435 55.0245 865.435 57.5927Z" fill="white"/>
<path d="M876.357 72.7611H878.805V66.8422C879.427 67.8454 880.711 68.4273 882.196 68.4273C885.145 68.4273 886.83 66.1801 886.83 63.0902C886.83 59.9803 884.984 57.9538 882.196 57.9538C880.691 57.9538 879.387 58.6159 878.785 59.7596L878.624 58.2548H876.357V72.7611ZM878.825 63.2106C878.825 61.4249 879.928 60.1809 881.614 60.1809C883.339 60.1809 884.362 61.445 884.362 63.2106C884.362 64.9762 883.339 66.2202 881.614 66.2202C879.928 66.2202 878.825 64.9963 878.825 63.2106Z" fill="white"/>
<path d="M890.296 68.4273C891.841 68.4273 893.185 67.725 893.606 66.7018L893.787 68.1664H895.934V62.1472C895.934 59.3984 894.288 57.9538 891.62 57.9538C888.931 57.9538 887.166 59.3583 887.166 61.5052H889.252C889.252 60.4618 890.055 59.8599 891.5 59.8599C892.743 59.8599 893.546 60.4016 893.546 61.7459V61.9666L890.577 62.1873C888.229 62.3679 886.905 63.5116 886.905 65.3374C886.905 67.2034 888.189 68.4273 890.296 68.4273ZM891.098 66.5814C889.995 66.5814 889.393 66.14 889.393 65.2371C889.393 64.4345 889.975 63.9329 891.5 63.7925L893.566 63.632V64.1536C893.566 65.6785 892.603 66.5814 891.098 66.5814Z" fill="white"/>
<path d="M896.323 63.1905C896.323 66.3406 898.29 68.4273 901.299 68.4273C903.888 68.4273 905.814 66.8422 906.115 64.5348H903.647C903.386 65.6183 902.523 66.2202 901.299 66.2202C899.734 66.2202 898.771 65.0565 898.771 63.1905C898.771 61.3246 899.815 60.1408 901.38 60.1408C902.543 60.1408 903.366 60.7227 903.647 61.8463H906.095C905.834 59.4586 903.988 57.9538 901.279 57.9538C898.35 57.9538 896.323 60.1207 896.323 63.1905Z" fill="white"/>
<path d="M910.938 68.4273C913.526 68.4273 915.332 67.1231 915.753 64.9562H913.486C913.205 65.8992 912.322 66.4209 910.978 66.4209C909.353 66.4209 908.43 65.538 908.249 63.7925L915.713 63.7724V63.03C915.713 59.9402 913.827 57.9538 910.857 57.9538C907.948 57.9538 905.922 60.1007 905.922 63.2106C905.922 66.2804 907.988 68.4273 910.938 68.4273ZM910.877 59.9602C912.342 59.9602 913.285 60.8631 913.285 62.2275H908.309C908.55 60.7427 909.433 59.9602 910.877 59.9602Z" fill="white"/>
<rect x="730.673" y="1.67341" width="250.653" height="122.653" stroke="url(#paint7_linear_19_4074)" stroke-opacity="0.8" stroke-width="2.65318"/>
<rect x="1004" y="3" width="248" height="120" fill="url(#paint8_linear_19_4074)" fill-opacity="0.6"/>
<g clip-path="url(#clip2_19_4074)">
<path d="M1097.07 52.9678H1080.98L1080.97 53.0642C1080.92 53.0624 1080.88 53.0614 1080.84 53.0614C1079.3 53.0614 1078.04 54.3119 1078.04 55.8545C1078.04 56.9267 1078.65 57.8577 1079.54 58.3259L1096.12 62.501H1103.45L1097.07 52.9678Z" fill="white"/>
<path d="M1097.47 64.3832L1088.54 63.4986H1087.22H1079.64L1086.03 73.0318H1102.11L1102.13 72.9354C1102.17 72.9372 1102.21 72.9382 1102.26 72.9382C1103.8 72.9382 1105.05 71.6877 1105.05 70.1451C1105.05 68.8831 1104.21 67.8166 1103.06 67.4703L1097.47 64.3832Z" fill="white"/>
</g>
<path d="M1111.61 68.7116C1111.61 71.2825 1113.68 73.0318 1116.94 73.0318C1120.17 73.0318 1122.42 71.3885 1122.42 68.7381C1122.42 66.7237 1121.31 65.7165 1119.11 65.2129L1116.75 64.6563C1115.64 64.3913 1115.06 63.9142 1115.06 63.1721C1115.06 62.1914 1115.8 61.6083 1117.07 61.6083C1118.32 61.6083 1119.06 62.3239 1119.09 63.4371H1122.16C1122.13 60.8927 1120.15 59.1964 1117.2 59.1964C1114.18 59.1964 1112.01 60.7337 1112.01 63.3046C1112.01 65.3985 1113.15 66.5117 1115.51 67.0418L1117.87 67.5984C1119.03 67.8634 1119.38 68.3405 1119.38 69.0031C1119.38 69.9573 1118.55 70.5669 1117.04 70.5669C1115.56 70.5669 1114.71 69.8513 1114.69 68.7116H1111.61Z" fill="white"/>
<path d="M1129.09 73.0318C1132.51 73.0318 1134.89 71.309 1135.45 68.4465H1132.45C1132.08 69.6922 1130.92 70.3814 1129.14 70.3814C1126.99 70.3814 1125.77 69.2152 1125.54 66.9092L1135.4 66.8827V65.9021C1135.4 61.8203 1132.9 59.1964 1128.98 59.1964C1125.14 59.1964 1122.46 62.0324 1122.46 66.1406C1122.46 70.1958 1125.19 73.0318 1129.09 73.0318ZM1129.01 61.8468C1130.94 61.8468 1132.19 63.0396 1132.19 64.8419H1125.62C1125.93 62.8805 1127.1 61.8468 1129.01 61.8468Z" fill="white"/>
<path d="M1139.59 72.6873V52.9678H1136.38V72.6873H1139.59Z" fill="white"/>
<path d="M1140.02 59.5939V62.2974H1141.91V72.6873H1145.11V62.2974H1148.24V59.5939H1145.11V58.0037C1145.11 56.7049 1145.51 55.8568 1147.15 55.8568H1148.29V53.1003C1147.74 52.9943 1147.13 52.9678 1146.62 52.9678C1143.79 52.9678 1141.91 54.452 1141.91 58.0037V59.5939H1140.02Z" fill="white"/>
<path d="M1152.21 73.0318C1154.25 73.0318 1156.02 72.1042 1156.58 70.7524L1156.82 72.6873H1159.66V64.7359C1159.66 61.1047 1157.48 59.1964 1153.96 59.1964C1150.41 59.1964 1148.07 61.0517 1148.07 63.8877H1150.83C1150.83 62.5095 1151.89 61.7143 1153.8 61.7143C1155.44 61.7143 1156.5 62.43 1156.5 64.2058V64.4973L1152.58 64.7889C1149.48 65.0274 1147.73 66.5382 1147.73 68.9501C1147.73 71.415 1149.42 73.0318 1152.21 73.0318ZM1153.27 70.5934C1151.81 70.5934 1151.01 70.0103 1151.01 68.8176C1151.01 67.7574 1151.78 67.0948 1153.8 66.9092L1156.53 66.6972V67.3863C1156.53 69.4007 1155.26 70.5934 1153.27 70.5934Z" fill="white"/>
<path d="M1160.17 68.7116C1160.17 71.2825 1162.24 73.0318 1165.5 73.0318C1168.73 73.0318 1170.98 71.3885 1170.98 68.7381C1170.98 66.7237 1169.87 65.7165 1167.67 65.2129L1165.31 64.6563C1164.2 64.3913 1163.61 63.9142 1163.61 63.1721C1163.61 62.1914 1164.36 61.6083 1165.63 61.6083C1166.87 61.6083 1167.62 62.3239 1167.64 63.4371H1170.72C1170.69 60.8927 1168.7 59.1964 1165.76 59.1964C1162.74 59.1964 1160.57 60.7337 1160.57 63.3046C1160.57 65.3985 1161.71 66.5117 1164.06 67.0418L1166.42 67.5984C1167.59 67.8634 1167.93 68.3405 1167.93 69.0031C1167.93 69.9573 1167.11 70.5669 1165.6 70.5669C1164.12 70.5669 1163.27 69.8513 1163.24 68.7116H1160.17Z" fill="white"/>
<path d="M1176.24 72.6873V62.2974H1178.78V59.5939H1176.24V55.5122H1173.01V59.5939H1170.49V62.2974H1173.01V72.6873H1176.24Z" fill="white"/>
<rect x="1002.67" y="1.67341" width="250.653" height="122.653" stroke="url(#paint9_linear_19_4074)" stroke-opacity="0.8" stroke-width="2.65318"/>
<rect x="1276" y="3" width="248" height="120" fill="url(#paint10_linear_19_4074)" fill-opacity="0.6"/>
<path fill-rule="evenodd" clip-rule="evenodd" d="M1347.7 60.7423C1347.7 63.5504 1349.38 65.9655 1351.79 67.0345C1353.24 67.6759 1354.58 68.9047 1354.58 70.4877L1354.58 72.2075C1348.25 72.2075 1343.11 67.0744 1343.11 60.7423C1343.11 54.4103 1348.25 49.2772 1354.58 49.2772L1354.58 53.8632C1350.78 53.8632 1347.7 56.9431 1347.7 60.7423Z" fill="white"/>
<path fill-rule="evenodd" clip-rule="evenodd" d="M1361.46 65.2572C1361.46 62.4491 1359.78 60.034 1357.36 58.965C1355.92 58.3236 1354.58 57.0948 1354.58 55.5118L1354.58 53.792C1360.91 53.792 1366.04 58.9251 1366.04 65.2572C1366.04 71.5892 1360.91 76.7223 1354.58 76.7223L1354.58 72.1363C1358.38 72.1363 1361.46 69.0564 1361.46 65.2572Z" fill="white"/>
<path d="M1374.84 57.5927C1374.84 59.8398 1376.15 61.2644 1378.64 61.8061L1380.96 62.3278C1382.17 62.5886 1382.67 63.1705 1382.67 64.1536C1382.67 65.3775 1381.58 66.1199 1379.88 66.1199C1378.23 66.1199 1377.23 65.3775 1377.21 64.1336H1374.64C1374.7 66.7619 1376.75 68.4273 1379.88 68.4273C1383.11 68.4273 1385.24 66.6616 1385.24 63.9329C1385.24 61.7459 1384.01 60.4618 1381.5 59.9201L1379.2 59.4185C1377.97 59.1376 1377.41 58.5557 1377.41 57.5124C1377.41 56.2885 1378.43 55.5261 1380.02 55.5261C1381.46 55.5261 1382.37 56.2684 1382.43 57.5325H1385C1384.92 54.884 1383.03 53.2388 1380.06 53.2388C1376.97 53.2388 1374.84 55.0245 1374.84 57.5927Z" fill="white"/>
<path d="M1388.23 68.1664V53.2388H1385.81V68.1664H1388.23Z" fill="white"/>
<path d="M1392.32 68.4273C1393.86 68.4273 1395.21 67.725 1395.63 66.7018L1395.81 68.1664H1397.96V62.1472C1397.96 59.3984 1396.31 57.9538 1393.64 57.9538C1390.95 57.9538 1389.19 59.3583 1389.19 61.5052H1391.27C1391.27 60.4618 1392.08 59.8599 1393.52 59.8599C1394.77 59.8599 1395.57 60.4016 1395.57 61.7459V61.9666L1392.6 62.1873C1390.25 62.3679 1388.93 63.5116 1388.93 65.3374C1388.93 67.2034 1390.21 68.4273 1392.32 68.4273ZM1393.12 66.5814C1392.02 66.5814 1391.41 66.14 1391.41 65.2371C1391.41 64.4345 1392 63.9329 1393.52 63.7925L1395.59 63.632V64.1536C1395.59 65.6785 1394.62 66.5814 1393.12 66.5814Z" fill="white"/>
<path d="M1401.19 68.1664L1401.35 66.6215C1401.94 67.7652 1403.2 68.4273 1404.69 68.4273C1407.53 68.4273 1409.4 66.3205 1409.4 63.2708C1409.4 60.1408 1407.67 57.9338 1404.85 57.9338C1403.34 57.9338 1402.02 58.5959 1401.37 59.6994V53.2388H1398.93V68.1664H1401.19ZM1401.39 63.1705C1401.39 61.3848 1402.5 60.1408 1404.18 60.1408C1405.91 60.1408 1406.93 61.4048 1406.93 63.1705C1406.93 64.9361 1405.91 66.1801 1404.18 66.1801C1402.5 66.1801 1401.39 64.9562 1401.39 63.1705Z" fill="white"/>
<path d="M1409.43 57.5927C1409.43 59.8398 1410.74 61.2644 1413.23 61.8061L1415.55 62.3278C1416.76 62.5886 1417.26 63.1705 1417.26 64.1536C1417.26 65.3775 1416.18 66.1199 1414.47 66.1199C1412.83 66.1199 1411.82 65.3775 1411.8 64.1336H1409.23C1409.29 66.7619 1411.34 68.4273 1414.47 68.4273C1417.7 68.4273 1419.83 66.6616 1419.83 63.9329C1419.83 61.7459 1418.6 60.4618 1416.1 59.9201L1413.79 59.4185C1412.56 59.1376 1412 58.5557 1412 57.5124C1412 56.2885 1413.03 55.5261 1414.61 55.5261C1416.06 55.5261 1416.96 56.2684 1417.02 57.5325H1419.59C1419.51 54.884 1417.62 53.2388 1414.65 53.2388C1411.56 53.2388 1409.43 55.0245 1409.43 57.5927Z" fill="white"/>
<path d="M1420.36 72.7611H1422.8V66.8422C1423.43 67.8454 1424.71 68.4273 1426.2 68.4273C1429.14 68.4273 1430.83 66.1801 1430.83 63.0902C1430.83 59.9803 1428.98 57.9538 1426.2 57.9538C1424.69 57.9538 1423.39 58.6159 1422.78 59.7596L1422.62 58.2548H1420.36V72.7611ZM1422.82 63.2106C1422.82 61.4249 1423.93 60.1809 1425.61 60.1809C1427.34 60.1809 1428.36 61.445 1428.36 63.2106C1428.36 64.9762 1427.34 66.2202 1425.61 66.2202C1423.93 66.2202 1422.82 64.9963 1422.82 63.2106Z" fill="white"/>
<path d="M1434.3 68.4273C1435.84 68.4273 1437.18 67.725 1437.61 66.7018L1437.79 68.1664H1439.93V62.1472C1439.93 59.3984 1438.29 57.9538 1435.62 57.9538C1432.93 57.9538 1431.17 59.3583 1431.17 61.5052H1433.25C1433.25 60.4618 1434.05 59.8599 1435.5 59.8599C1436.74 59.8599 1437.55 60.4016 1437.55 61.7459V61.9666L1434.58 62.1873C1432.23 62.3679 1430.9 63.5116 1430.9 65.3374C1430.9 67.2034 1432.19 68.4273 1434.3 68.4273ZM1435.1 66.5814C1433.99 66.5814 1433.39 66.14 1433.39 65.2371C1433.39 64.4345 1433.97 63.9329 1435.5 63.7925L1437.57 63.632V64.1536C1437.57 65.6785 1436.6 66.5814 1435.1 66.5814Z" fill="white"/>
<path d="M1440.32 63.1905C1440.32 66.3406 1442.29 68.4273 1445.3 68.4273C1447.89 68.4273 1449.81 66.8422 1450.11 64.5348H1447.65C1447.39 65.6183 1446.52 66.2202 1445.3 66.2202C1443.73 66.2202 1442.77 65.0565 1442.77 63.1905C1442.77 61.3246 1443.81 60.1408 1445.38 60.1408C1446.54 60.1408 1447.37 60.7227 1447.65 61.8463H1450.09C1449.83 59.4586 1447.99 57.9538 1445.28 57.9538C1442.35 57.9538 1440.32 60.1207 1440.32 63.1905Z" fill="white"/>
<path d="M1454.94 68.4273C1457.53 68.4273 1459.33 67.1231 1459.75 64.9562H1457.49C1457.2 65.8992 1456.32 66.4209 1454.98 66.4209C1453.35 66.4209 1452.43 65.538 1452.25 63.7925L1459.71 63.7724V63.03C1459.71 59.9402 1457.83 57.9538 1454.86 57.9538C1451.95 57.9538 1449.92 60.1007 1449.92 63.2106C1449.92 66.2804 1451.99 68.4273 1454.94 68.4273ZM1454.88 59.9602C1456.34 59.9602 1457.29 60.8631 1457.29 62.2275H1452.31C1452.55 60.7427 1453.43 59.9602 1454.88 59.9602Z" fill="white"/>
<rect x="1274.67" y="1.67341" width="250.653" height="122.653" stroke="url(#paint11_linear_19_4074)" stroke-opacity="0.8" stroke-width="2.65318"/>
<rect x="-220" y="123" width="248" height="120" fill="url(#paint12_linear_19_4074)" fill-opacity="0.6"/>
<rect x="-221.327" y="121.673" width="250.653" height="122.653" stroke="url(#paint13_linear_19_4074)" stroke-opacity="0.8" stroke-width="2.65318"/>
<rect x="52" y="123" width="248" height="120" fill="url(#paint14_linear_19_4074)" fill-opacity="0.6"/>
<g clip-path="url(#clip3_19_4074)">
<path d="M143.974 168.668H131.481C130.843 168.668 130.523 169.44 130.975 169.892L142.75 181.668C143.202 182.119 143.974 181.799 143.974 181.161V168.668Z" fill="white"/>
<path d="M137.14 175.998H119.266C117.99 175.998 117.35 177.541 118.253 178.444L134.694 194.885C135.597 195.788 137.14 195.148 137.14 193.871V175.998Z" fill="white"/>
<path fill-rule="evenodd" clip-rule="evenodd" d="M137.14 185.398V175.998H127.74C127.323 178.422 127.977 181.056 130.029 183.109C132.082 185.161 134.716 185.815 137.14 185.398Z" fill="white"/>
</g>
<path d="M149.706 186.114C149.706 188.954 151.99 190.886 155.591 190.886C159.163 190.886 161.651 189.071 161.651 186.143C161.651 183.918 160.421 182.806 157.992 182.25L155.386 181.635C154.156 181.342 153.512 180.815 153.512 179.995C153.512 178.912 154.332 178.268 155.737 178.268C157.113 178.268 157.933 179.059 157.962 180.288H161.358C161.329 177.478 159.133 175.604 155.884 175.604C152.546 175.604 150.146 177.302 150.146 180.142C150.146 182.455 151.404 183.684 154.01 184.27L156.616 184.884C157.904 185.177 158.284 185.704 158.284 186.436C158.284 187.49 157.377 188.163 155.708 188.163C154.069 188.163 153.132 187.373 153.102 186.114H149.706Z" fill="white"/>
<path d="M167.459 190.505V179.029H170.27V176.043H167.459V171.535H163.887V176.043H161.106V179.029H163.887V190.505H167.459Z" fill="white"/>
<path d="M174.878 190.886C177.132 190.886 179.094 189.861 179.709 188.368L179.972 190.505H183.105V181.723C183.105 177.712 180.704 175.604 176.81 175.604C172.887 175.604 170.311 177.653 170.311 180.786H173.356C173.356 179.264 174.527 178.385 176.635 178.385C178.45 178.385 179.621 179.176 179.621 181.137V181.459L175.288 181.781C171.863 182.045 169.93 183.713 169.93 186.378C169.93 189.1 171.804 190.886 174.878 190.886ZM176.049 188.193C174.439 188.193 173.561 187.549 173.561 186.231C173.561 185.06 174.41 184.328 176.635 184.123L179.65 183.889V184.65C179.65 186.875 178.245 188.193 176.049 188.193Z" fill="white"/>
<path d="M193.859 175.985C193.274 175.838 192.776 175.78 192.278 175.78C190.346 175.78 188.97 176.746 188.355 178.18L188.15 176.072H184.784V190.505H188.355V183.479C188.355 180.669 189.965 179.293 192.542 179.293H193.859V175.985Z" fill="white"/>
<path d="M193.334 186.114C193.334 188.954 195.618 190.886 199.219 190.886C202.791 190.886 205.279 189.071 205.279 186.143C205.279 183.918 204.049 182.806 201.62 182.25L199.014 181.635C197.784 181.342 197.14 180.815 197.14 179.995C197.14 178.912 197.96 178.268 199.365 178.268C200.741 178.268 201.561 179.059 201.59 180.288H204.986C204.957 177.478 202.761 175.604 199.512 175.604C196.174 175.604 193.774 177.302 193.774 180.142C193.774 182.455 195.032 183.684 197.638 184.27L200.244 184.884C201.532 185.177 201.912 185.704 201.912 186.436C201.912 187.49 201.005 188.163 199.336 188.163C197.697 188.163 196.76 187.373 196.73 186.114H193.334Z" fill="white"/>
<path d="M215.976 176.043V183.626C215.976 186.378 214.893 187.695 212.639 187.695C210.648 187.695 209.565 186.582 209.565 183.831V176.043H205.993V185.089C205.993 188.632 207.955 190.886 211.292 190.886C213.224 190.886 215.098 189.949 215.976 188.573L216.24 190.505H219.548V176.043H215.976Z" fill="white"/>
<path d="M221.407 194.465H224.979V188.573C225.886 190.037 227.76 190.886 229.926 190.886C234.23 190.886 236.689 187.607 236.689 183.099C236.689 178.561 233.996 175.604 229.926 175.604C227.731 175.604 225.828 176.57 224.949 178.239L224.715 176.043H221.407V194.465ZM225.008 183.274C225.008 180.669 226.618 178.854 229.077 178.854C231.595 178.854 233.088 180.698 233.088 183.274C233.088 185.851 231.595 187.666 229.077 187.666C226.618 187.666 225.008 185.88 225.008 183.274Z" fill="white"/>
<rect x="50.6734" y="121.673" width="250.653" height="122.653" stroke="url(#paint15_linear_19_4074)" stroke-opacity="0.8" stroke-width="2.65318"/>
<rect x="324" y="123" width="248" height="120" fill="url(#paint16_linear_19_4074)" fill-opacity="0.6"/>
<g clip-path="url(#clip4_19_4074)">
<path d="M408.537 190.456C409.657 191.575 409.657 193.39 408.537 194.509L407.72 195.327C406.6 196.446 404.786 196.446 403.666 195.327L400.794 192.454L405.665 187.583L408.537 190.456Z" fill="white"/>
<path d="M388.219 190.458C387.109 191.579 387.113 193.387 388.229 194.502L389.046 195.32C390.169 196.443 391.992 196.438 393.109 195.31L398.387 189.982L393.516 185.111L388.219 190.458Z" fill="white"/>
<path fill-rule="evenodd" clip-rule="evenodd" d="M413.027 169.768C411.909 168.65 410.095 168.649 408.976 169.767L398.43 180.295L392.757 174.622C391.861 173.726 390.407 173.726 389.51 174.622L387.886 176.246C386.99 177.143 386.99 178.597 387.886 179.493L398.426 190.033L400.383 188.075C400.411 188.049 400.439 188.022 400.467 187.995L413.843 174.641C414.964 173.522 414.965 171.706 413.845 170.586L413.027 169.768Z" fill="white"/>
</g>
<path d="M432.862 190.11H423.354V183.882H431.842V181.236H423.354V175.614H432.669V172.968H420.322V192.756H432.862V190.11Z" fill="white"/>
<path d="M435.99 192.756L439.848 186.941L443.762 192.756H446.959L441.832 185.37L446.628 178.149H443.624L440.013 183.661L436.403 178.149H433.178L438.029 185.287L432.848 192.756H435.99Z" fill="white"/>
<path d="M455.19 192.756C461.309 192.756 465.388 188.512 465.388 182.752C465.388 176.992 461.447 172.968 455.19 172.968H447.474V192.756H455.19ZM452.682 177.46H454.887C458.277 177.46 460.041 179.252 460.041 182.752C460.041 186.472 458.332 188.264 454.887 188.264H452.682V177.46Z" fill="white"/>
<path d="M472.789 193.032C477.171 193.032 480.534 189.587 480.534 185.342C480.534 181.098 477.171 177.653 472.789 177.653C468.407 177.653 465.045 181.098 465.045 185.342C465.045 189.587 468.407 193.032 472.789 193.032ZM472.789 188.815C471.328 188.815 469.95 187.658 469.95 185.342C469.95 183.027 471.328 181.897 472.789 181.897C474.25 181.897 475.628 183.027 475.628 185.342C475.628 187.658 474.25 188.815 472.789 188.815Z" fill="white"/>
<path d="M485.686 184.957C485.686 182.724 486.733 181.897 487.891 181.897C489.324 181.897 489.985 182.917 489.985 184.791V192.756H494.698V183.22C494.698 179.61 492.631 177.653 489.71 177.653C487.836 177.653 486.458 178.425 485.3 179.72V177.929H480.973V192.756H485.686V184.957Z" fill="white"/>
<path d="M502.635 193.004C506.328 193.004 508.946 191.103 509.856 187.713H505.143C504.729 188.788 503.847 189.339 502.525 189.339C501.009 189.339 500.127 188.402 499.879 186.528H509.938C510.793 181.649 507.513 177.653 502.607 177.653C498.198 177.653 495.001 180.878 495.001 185.315C495.001 189.917 498.06 193.004 502.635 193.004ZM502.497 181.126C503.903 181.126 504.84 182.09 504.895 183.579H499.934C500.265 181.925 501.091 181.126 502.497 181.126Z" fill="white"/>
<rect x="322.673" y="121.673" width="250.653" height="122.653" stroke="url(#paint17_linear_19_4074)" stroke-opacity="0.8" stroke-width="2.65318"/>
<rect x="596" y="123" width="248" height="120" fill="url(#paint18_linear_19_4074)" fill-opacity="0.6"/>
<path fill-rule="evenodd" clip-rule="evenodd" d="M650.714 171.535V180.633H653.747V171.535H650.714ZM658.865 171.535V185.182H661.898V171.535H658.865ZM667.205 180.633V171.535H670.238V180.633H667.205ZM660.381 194.465C654.588 194.465 649.715 190.527 648.291 185.182H651.468C652.788 188.827 656.28 191.432 660.381 191.432C664.482 191.432 667.975 188.827 669.295 185.182H672.471C671.048 190.527 666.175 194.465 660.381 194.465Z" fill="white"/>
<path d="M684.074 189.062V179.5H680.445V176.938H690.902V179.5H687.273V189.062H684.074Z" fill="white"/>
<path d="M695.072 189.062V176.938H703.688V179.38H698.15V181.684H703.344V184.109H698.15V186.62H703.688V189.062H695.072Z" fill="white"/>
<path d="M717.284 189.062L716.201 186.551H710.835L709.751 189.062H706.57L712.228 176.938H714.739L720.414 189.062H717.284ZM711.849 184.178H715.186L713.518 180.291L711.849 184.178Z" fill="white"/>
<path d="M733.801 176.938H736.243V189.062H733.491V182.699L731.152 187.05H729.123L726.801 182.802L726.784 189.062H724.033V176.938H726.526L730.172 183.834L733.801 176.938Z" fill="white"/>
<path d="M744.076 189.062V179.5H740.447V176.938H750.903V179.5H747.275V189.062H744.076Z" fill="white"/>
<path d="M762.73 189.062L761.647 186.551H756.281L755.198 189.062H752.016L757.674 176.938H760.185L765.86 189.062H762.73ZM757.296 184.178H760.632L758.964 180.291L757.296 184.178Z" fill="white"/>
<path d="M769.445 189.062V176.938H772.609V186.499H777.768V189.062H769.445Z" fill="white"/>
<path d="M793.95 189.062H790.201L785.317 183.576V189.062H782.153V176.938H785.317V182.148L790.064 176.938H793.761L788.413 182.699L793.95 189.062Z" fill="white"/>
<rect x="594.673" y="121.673" width="250.653" height="122.653" stroke="url(#paint19_linear_19_4074)" stroke-opacity="0.8" stroke-width="2.65318"/>
<rect x="868" y="123" width="248" height="120" fill="url(#paint20_linear_19_4074)" fill-opacity="0.6"/>
<path fill-rule="evenodd" clip-rule="evenodd" d="M939.699 180.742C939.699 183.55 941.382 185.965 943.794 187.034C945.241 187.676 946.579 188.905 946.579 190.488L946.579 192.208C940.247 192.208 935.113 187.074 935.113 180.742C935.113 174.41 940.247 169.277 946.579 169.277L946.579 173.863C942.779 173.863 939.699 176.943 939.699 180.742Z" fill="white"/>
<path fill-rule="evenodd" clip-rule="evenodd" d="M953.458 185.257C953.458 182.449 951.775 180.034 949.363 178.965C947.916 178.324 946.579 177.095 946.579 175.512L946.579 173.792C952.911 173.792 958.044 178.925 958.044 185.257C958.044 191.589 952.911 196.722 946.579 196.722L946.579 192.136C950.378 192.136 953.458 189.056 953.458 185.257Z" fill="white"/>
<path d="M966.843 177.593C966.843 179.84 968.147 181.264 970.635 181.806L972.963 182.328C974.167 182.589 974.668 183.17 974.668 184.154C974.668 185.378 973.585 186.12 971.879 186.12C970.234 186.12 969.231 185.378 969.211 184.134H966.643C966.703 186.762 968.749 188.427 971.879 188.427C975.11 188.427 977.236 186.662 977.236 183.933C977.236 181.746 976.012 180.462 973.504 179.92L971.197 179.419C969.973 179.138 969.411 178.556 969.411 177.512C969.411 176.289 970.435 175.526 972.02 175.526C973.464 175.526 974.367 176.268 974.427 177.532H976.996C976.915 174.884 975.029 173.239 972.06 173.239C968.97 173.239 966.843 175.024 966.843 177.593Z" fill="white"/>
<path d="M980.233 188.166V173.239H977.806V188.166H980.233Z" fill="white"/>
<path d="M984.317 188.427C985.862 188.427 987.207 187.725 987.628 186.702L987.808 188.166H989.955V182.147C989.955 179.398 988.31 177.954 985.642 177.954C982.953 177.954 981.187 179.358 981.187 181.505H983.274C983.274 180.462 984.077 179.86 985.521 179.86C986.765 179.86 987.568 180.402 987.568 181.746V181.967L984.598 182.187C982.251 182.368 980.927 183.512 980.927 185.337C980.927 187.203 982.211 188.427 984.317 188.427ZM985.12 186.581C984.016 186.581 983.414 186.14 983.414 185.237C983.414 184.435 983.996 183.933 985.521 183.792L987.588 183.632V184.154C987.588 185.678 986.625 186.581 985.12 186.581Z" fill="white"/>
<path d="M993.194 188.166L993.355 186.621C993.937 187.765 995.201 188.427 996.685 188.427C999.534 188.427 1001.4 186.321 1001.4 183.271C1001.4 180.141 999.675 177.934 996.846 177.934C995.341 177.934 994.017 178.596 993.375 179.699V173.239H990.927V188.166H993.194ZM993.395 183.17C993.395 181.385 994.498 180.141 996.184 180.141C997.909 180.141 998.932 181.405 998.932 183.17C998.932 184.936 997.909 186.18 996.184 186.18C994.498 186.18 993.395 184.956 993.395 183.17Z" fill="white"/>
<path d="M1001.43 177.593C1001.43 179.84 1002.74 181.264 1005.23 181.806L1007.55 182.328C1008.76 182.589 1009.26 183.17 1009.26 184.154C1009.26 185.378 1008.18 186.12 1006.47 186.12C1004.83 186.12 1003.82 185.378 1003.8 184.134H1001.23C1001.29 186.762 1003.34 188.427 1006.47 188.427C1009.7 188.427 1011.83 186.662 1011.83 183.933C1011.83 181.746 1010.6 180.462 1008.1 179.92L1005.79 179.419C1004.56 179.138 1004 178.556 1004 177.512C1004 176.289 1005.03 175.526 1006.61 175.526C1008.06 175.526 1008.96 176.268 1009.02 177.532H1011.59C1011.51 174.884 1009.62 173.239 1006.65 173.239C1003.56 173.239 1001.43 175.024 1001.43 177.593Z" fill="white"/>
<path d="M1012.36 192.761H1014.8V186.842C1015.43 187.845 1016.71 188.427 1018.2 188.427C1021.14 188.427 1022.83 186.18 1022.83 183.09C1022.83 179.98 1020.98 177.954 1018.2 177.954C1016.69 177.954 1015.39 178.616 1014.78 179.76L1014.62 178.255H1012.36V192.761ZM1014.82 183.211C1014.82 181.425 1015.93 180.181 1017.61 180.181C1019.34 180.181 1020.36 181.445 1020.36 183.211C1020.36 184.976 1019.34 186.22 1017.61 186.22C1015.93 186.22 1014.82 184.996 1014.82 183.211Z" fill="white"/>
<path d="M1026.3 188.427C1027.84 188.427 1029.18 187.725 1029.61 186.702L1029.79 188.166H1031.93V182.147C1031.93 179.398 1030.29 177.954 1027.62 177.954C1024.93 177.954 1023.17 179.358 1023.17 181.505H1025.25C1025.25 180.462 1026.05 179.86 1027.5 179.86C1028.74 179.86 1029.55 180.402 1029.55 181.746V181.967L1026.58 182.187C1024.23 182.368 1022.9 183.512 1022.9 185.337C1022.9 187.203 1024.19 188.427 1026.3 188.427ZM1027.1 186.581C1025.99 186.581 1025.39 186.14 1025.39 185.237C1025.39 184.435 1025.97 183.933 1027.5 183.792L1029.57 183.632V184.154C1029.57 185.678 1028.6 186.581 1027.1 186.581Z" fill="white"/>
<path d="M1032.32 183.191C1032.32 186.341 1034.29 188.427 1037.3 188.427C1039.89 188.427 1041.81 186.842 1042.11 184.535H1039.65C1039.39 185.618 1038.52 186.22 1037.3 186.22C1035.73 186.22 1034.77 185.057 1034.77 183.191C1034.77 181.325 1035.81 180.141 1037.38 180.141C1038.54 180.141 1039.37 180.723 1039.65 181.846H1042.09C1041.83 179.459 1039.99 177.954 1037.28 177.954C1034.35 177.954 1032.32 180.121 1032.32 183.191Z" fill="white"/>
<path d="M1046.94 188.427C1049.53 188.427 1051.33 187.123 1051.75 184.956H1049.49C1049.2 185.899 1048.32 186.421 1046.98 186.421C1045.35 186.421 1044.43 185.538 1044.25 183.792L1051.71 183.772V183.03C1051.71 179.94 1049.83 177.954 1046.86 177.954C1043.95 177.954 1041.92 180.101 1041.92 183.211C1041.92 186.28 1043.99 188.427 1046.94 188.427ZM1046.88 179.96C1048.34 179.96 1049.29 180.863 1049.29 182.227H1044.31C1044.55 180.743 1045.43 179.96 1046.88 179.96Z" fill="white"/>
<rect x="866.673" y="121.673" width="250.653" height="122.653" stroke="url(#paint21_linear_19_4074)" stroke-opacity="0.8" stroke-width="2.65318"/>
<rect x="1140" y="123" width="248" height="120" fill="url(#paint22_linear_19_4074)" fill-opacity="0.6"/>
<g clip-path="url(#clip5_19_4074)">
<path d="M1233.07 172.968H1216.98L1216.97 173.064C1216.92 173.062 1216.88 173.061 1216.84 173.061C1215.3 173.061 1214.04 174.312 1214.04 175.855C1214.04 176.927 1214.65 177.858 1215.54 178.326L1232.12 182.501H1239.45L1233.07 172.968Z" fill="white"/>
<path d="M1233.47 184.383L1224.54 183.499H1223.22H1215.64L1222.03 193.032H1238.11L1238.13 192.935C1238.17 192.937 1238.21 192.938 1238.26 192.938C1239.8 192.938 1241.05 191.688 1241.05 190.145C1241.05 188.883 1240.21 187.817 1239.06 187.47L1233.47 184.383Z" fill="white"/>
</g>
<path d="M1247.61 188.712C1247.61 191.283 1249.68 193.032 1252.94 193.032C1256.17 193.032 1258.42 191.389 1258.42 188.738C1258.42 186.724 1257.31 185.717 1255.11 185.213L1252.75 184.656C1251.64 184.391 1251.06 183.914 1251.06 183.172C1251.06 182.191 1251.8 181.608 1253.07 181.608C1254.32 181.608 1255.06 182.324 1255.09 183.437H1258.16C1258.13 180.893 1256.15 179.196 1253.2 179.196C1250.18 179.196 1248.01 180.734 1248.01 183.305C1248.01 185.398 1249.15 186.512 1251.51 187.042L1253.87 187.598C1255.03 187.863 1255.38 188.341 1255.38 189.003C1255.38 189.957 1254.55 190.567 1253.04 190.567C1251.56 190.567 1250.71 189.851 1250.69 188.712H1247.61Z" fill="white"/>
<path d="M1265.09 193.032C1268.51 193.032 1270.89 191.309 1271.45 188.447H1268.45C1268.08 189.692 1266.92 190.381 1265.14 190.381C1262.99 190.381 1261.77 189.215 1261.54 186.909L1271.4 186.883V185.902C1271.4 181.82 1268.9 179.196 1264.98 179.196C1261.14 179.196 1258.46 182.032 1258.46 186.141C1258.46 190.196 1261.19 193.032 1265.09 193.032ZM1265.01 181.847C1266.94 181.847 1268.19 183.04 1268.19 184.842H1261.62C1261.93 182.881 1263.1 181.847 1265.01 181.847Z" fill="white"/>
<path d="M1275.59 192.687V172.968H1272.38V192.687H1275.59Z" fill="white"/>
<path d="M1276.02 179.594V182.297H1277.91V192.687H1281.11V182.297H1284.24V179.594H1281.11V178.004C1281.11 176.705 1281.51 175.857 1283.15 175.857H1284.29V173.1C1283.74 172.994 1283.13 172.968 1282.62 172.968C1279.79 172.968 1277.91 174.452 1277.91 178.004V179.594H1276.02Z" fill="white"/>
<path d="M1288.21 193.032C1290.25 193.032 1292.02 192.104 1292.58 190.752L1292.82 192.687H1295.66V184.736C1295.66 181.105 1293.48 179.196 1289.96 179.196C1286.41 179.196 1284.07 181.052 1284.07 183.888H1286.83C1286.83 182.509 1287.89 181.714 1289.8 181.714C1291.44 181.714 1292.5 182.43 1292.5 184.206V184.497L1288.58 184.789C1285.48 185.027 1283.73 186.538 1283.73 188.95C1283.73 191.415 1285.42 193.032 1288.21 193.032ZM1289.27 190.593C1287.81 190.593 1287.01 190.01 1287.01 188.818C1287.01 187.757 1287.78 187.095 1289.8 186.909L1292.53 186.697V187.386C1292.53 189.401 1291.26 190.593 1289.27 190.593Z" fill="white"/>
<path d="M1296.17 188.712C1296.17 191.283 1298.24 193.032 1301.5 193.032C1304.73 193.032 1306.98 191.389 1306.98 188.738C1306.98 186.724 1305.87 185.717 1303.67 185.213L1301.31 184.656C1300.2 184.391 1299.61 183.914 1299.61 183.172C1299.61 182.191 1300.36 181.608 1301.63 181.608C1302.87 181.608 1303.62 182.324 1303.64 183.437H1306.72C1306.69 180.893 1304.7 179.196 1301.76 179.196C1298.74 179.196 1296.57 180.734 1296.57 183.305C1296.57 185.398 1297.71 186.512 1300.06 187.042L1302.42 187.598C1303.59 187.863 1303.93 188.341 1303.93 189.003C1303.93 189.957 1303.11 190.567 1301.6 190.567C1300.12 190.567 1299.27 189.851 1299.24 188.712H1296.17Z" fill="white"/>
<path d="M1312.24 192.687V182.297H1314.78V179.594H1312.24V175.512H1309.01V179.594H1306.49V182.297H1309.01V192.687H1312.24Z" fill="white"/>
<rect x="1138.67" y="121.673" width="250.653" height="122.653" stroke="url(#paint23_linear_19_4074)" stroke-opacity="0.8" stroke-width="2.65318"/>
<rect x="1412" y="123" width="248" height="120" fill="url(#paint24_linear_19_4074)" fill-opacity="0.6"/>
<rect x="1410.67" y="121.673" width="250.653" height="122.653" stroke="url(#paint25_linear_19_4074)" stroke-opacity="0.8" stroke-width="2.65318"/>
<defs>
<linearGradient id="paint0_linear_19_4074" x1="40" y1="3" x2="40" y2="123" gradientUnits="userSpaceOnUse">
<stop stop-color="#22292D"/>
<stop offset="1" stop-color="#03090E"/>
</linearGradient>
<linearGradient id="paint1_linear_19_4074" x1="40" y1="3" x2="40" y2="123" gradientUnits="userSpaceOnUse">
<stop stop-color="white"/>
<stop offset="1" stop-color="white" stop-opacity="0"/>
</linearGradient>
<linearGradient id="paint2_linear_19_4074" x1="312" y1="3" x2="312" y2="123" gradientUnits="userSpaceOnUse">
<stop stop-color="#22292D"/>
<stop offset="1" stop-color="#03090E"/>
</linearGradient>
<linearGradient id="paint3_linear_19_4074" x1="312" y1="3" x2="312" y2="123" gradientUnits="userSpaceOnUse">
<stop stop-color="white"/>
<stop offset="1" stop-color="white" stop-opacity="0"/>
</linearGradient>
<linearGradient id="paint4_linear_19_4074" x1="584" y1="3" x2="584" y2="123" gradientUnits="userSpaceOnUse">
<stop stop-color="#22292D"/>
<stop offset="1" stop-color="#03090E"/>
</linearGradient>
<linearGradient id="paint5_linear_19_4074" x1="584" y1="3" x2="584" y2="123" gradientUnits="userSpaceOnUse">
<stop stop-color="white"/>
<stop offset="1" stop-color="white" stop-opacity="0"/>
</linearGradient>
<linearGradient id="paint6_linear_19_4074" x1="856" y1="3" x2="856" y2="123" gradientUnits="userSpaceOnUse">
<stop stop-color="#22292D"/>
<stop offset="1" stop-color="#03090E"/>
</linearGradient>
<linearGradient id="paint7_linear_19_4074" x1="856" y1="3" x2="856" y2="123" gradientUnits="userSpaceOnUse">
<stop stop-color="white"/>
<stop offset="1" stop-color="white" stop-opacity="0"/>
</linearGradient>
<linearGradient id="paint8_linear_19_4074" x1="1128" y1="3" x2="1128" y2="123" gradientUnits="userSpaceOnUse">
<stop stop-color="#22292D"/>
<stop offset="1" stop-color="#03090E"/>
</linearGradient>
<linearGradient id="paint9_linear_19_4074" x1="1128" y1="3" x2="1128" y2="123" gradientUnits="userSpaceOnUse">
<stop stop-color="white"/>
<stop offset="1" stop-color="white" stop-opacity="0"/>
</linearGradient>
<linearGradient id="paint10_linear_19_4074" x1="1400" y1="3" x2="1400" y2="123" gradientUnits="userSpaceOnUse">
<stop stop-color="#22292D"/>
<stop offset="1" stop-color="#03090E"/>
</linearGradient>
<linearGradient id="paint11_linear_19_4074" x1="1400" y1="3" x2="1400" y2="123" gradientUnits="userSpaceOnUse">
<stop stop-color="white"/>
<stop offset="1" stop-color="white" stop-opacity="0"/>
</linearGradient>
<linearGradient id="paint12_linear_19_4074" x1="-96" y1="123" x2="-96" y2="243" gradientUnits="userSpaceOnUse">
<stop stop-color="#22292D"/>
<stop offset="1" stop-color="#03090E"/>
</linearGradient>
<linearGradient id="paint13_linear_19_4074" x1="-96" y1="123" x2="-96" y2="243" gradientUnits="userSpaceOnUse">
<stop stop-color="white"/>
<stop offset="1" stop-color="white" stop-opacity="0"/>
</linearGradient>
<linearGradient id="paint14_linear_19_4074" x1="176" y1="123" x2="176" y2="243" gradientUnits="userSpaceOnUse">
<stop stop-color="#22292D"/>
<stop offset="1" stop-color="#03090E"/>
</linearGradient>
<linearGradient id="paint15_linear_19_4074" x1="176" y1="123" x2="176" y2="243" gradientUnits="userSpaceOnUse">
<stop stop-color="white"/>
<stop offset="1" stop-color="white" stop-opacity="0"/>
</linearGradient>
<linearGradient id="paint16_linear_19_4074" x1="448" y1="123" x2="448" y2="243" gradientUnits="userSpaceOnUse">
<stop stop-color="#22292D"/>
<stop offset="1" stop-color="#03090E"/>
</linearGradient>
<linearGradient id="paint17_linear_19_4074" x1="448" y1="123" x2="448" y2="243" gradientUnits="userSpaceOnUse">
<stop stop-color="white"/>
<stop offset="1" stop-color="white" stop-opacity="0"/>
</linearGradient>
<linearGradient id="paint18_linear_19_4074" x1="720" y1="123" x2="720" y2="243" gradientUnits="userSpaceOnUse">
<stop stop-color="#22292D"/>
<stop offset="1" stop-color="#03090E"/>
</linearGradient>
<linearGradient id="paint19_linear_19_4074" x1="720" y1="123" x2="720" y2="243" gradientUnits="userSpaceOnUse">
<stop stop-color="white"/>
<stop offset="1" stop-color="white" stop-opacity="0"/>
</linearGradient>
<linearGradient id="paint20_linear_19_4074" x1="992" y1="123" x2="992" y2="243" gradientUnits="userSpaceOnUse">
<stop stop-color="#22292D"/>
<stop offset="1" stop-color="#03090E"/>
</linearGradient>
<linearGradient id="paint21_linear_19_4074" x1="992" y1="123" x2="992" y2="243" gradientUnits="userSpaceOnUse">
<stop stop-color="white"/>
<stop offset="1" stop-color="white" stop-opacity="0"/>
</linearGradient>
<linearGradient id="paint22_linear_19_4074" x1="1264" y1="123" x2="1264" y2="243" gradientUnits="userSpaceOnUse">
<stop stop-color="#22292D"/>
<stop offset="1" stop-color="#03090E"/>
</linearGradient>
<linearGradient id="paint23_linear_19_4074" x1="1264" y1="123" x2="1264" y2="243" gradientUnits="userSpaceOnUse">
<stop stop-color="white"/>
<stop offset="1" stop-color="white" stop-opacity="0"/>
</linearGradient>
<linearGradient id="paint24_linear_19_4074" x1="1536" y1="123" x2="1536" y2="243" gradientUnits="userSpaceOnUse">
<stop stop-color="#22292D"/>
<stop offset="1" stop-color="#03090E"/>
</linearGradient>
<linearGradient id="paint25_linear_19_4074" x1="1536" y1="123" x2="1536" y2="243" gradientUnits="userSpaceOnUse">
<stop stop-color="white"/>
<stop offset="1" stop-color="white" stop-opacity="0"/>
</linearGradient>
<clipPath id="clip0_19_4074">
<rect width="28.6629" height="28.6629" fill="white" transform="translate(-20.6891 48.6685)"/>
</clipPath>
<clipPath id="clip1_19_4074">
<rect width="28.6629" height="28.6629" fill="white" transform="translate(249.926 48.6685)"/>
</clipPath>
<clipPath id="clip2_19_4074">
<rect width="28.6629" height="28.6629" fill="white" transform="translate(1077.22 48.6685)"/>
</clipPath>
<clipPath id="clip3_19_4074">
<rect width="28.6629" height="28.6629" fill="white" transform="translate(115.311 168.668)"/>
</clipPath>
<clipPath id="clip4_19_4074">
<rect width="28.6629" height="28.6629" fill="white" transform="translate(385.926 168.668)"/>
</clipPath>
<clipPath id="clip5_19_4074">
<rect width="28.6629" height="28.6629" fill="white" transform="translate(1213.22 168.668)"/>
</clipPath>
</defs>
</svg>
