<svg width="11" height="12" viewBox="0 0 11 12" fill="none" xmlns="http://www.w3.org/2000/svg">
<path d="M1.46 0.532498L10.2167 5.64083C10.2794 5.67757 10.3315 5.73009 10.3676 5.79317C10.4038 5.85625 10.4228 5.9277 10.4228 6.00041C10.4228 6.07313 10.4038 6.14458 10.3676 6.20766C10.3315 6.27074 10.2794 6.32326 10.2167 6.36L1.46 11.4683C1.39655 11.5054 1.32445 11.5249 1.251 11.5251C1.17754 11.5253 1.10534 11.5061 1.04172 11.4693C0.978101 11.4326 0.925318 11.3797 0.888721 11.316C0.852125 11.2524 0.833016 11.1801 0.833332 11.1067V0.892498C0.83331 0.819184 0.852633 0.747162 0.88935 0.683704C0.926066 0.620247 0.978876 0.5676 1.04245 0.531081C1.10602 0.494561 1.1781 0.475462 1.25141 0.47571C1.32473 0.475959 1.39668 0.495548 1.46 0.532498Z" fill="black"/>
</svg>
